<svg width="24" height="24" viewBox="0 0 24 24" fill="none" xmlns="http://www.w3.org/2000/svg">
<path d="M0 4C0 1.79086 1.79086 0 4 0H20C22.2091 0 24 1.79086 24 4V20C24 22.2091 22.2091 24 20 24H4C1.79086 24 0 22.2091 0 20V4Z" fill="#2E2E2E"/>
<path d="M7.97143 16.9156C7.77143 16.9156 7.67143 16.8218 7.67143 16.6343C7.67143 16.5781 7.69048 16.5265 7.72857 16.4796L14.7714 7.33755C14.8381 7.25316 14.9048 7.18753 14.9714 7.14065C15.0381 7.09376 15.1333 7.07032 15.2571 7.07032H16.0143C16.2143 7.07032 16.3143 7.16409 16.3143 7.35162C16.3143 7.40788 16.2952 7.45945 16.2571 7.50633L9.21429 16.6484C9.14762 16.7328 9.08095 16.7984 9.01429 16.8453C8.95714 16.8922 8.8619 16.9156 8.72857 16.9156H7.97143ZM14.8429 17C14.2048 17 13.7 16.8265 13.3286 16.4796C12.9571 16.1327 12.7524 15.6779 12.7143 15.1153C12.7048 14.8715 12.7 14.6606 12.7 14.4824C12.7 14.3043 12.7048 14.0839 12.7143 13.8214C12.7524 13.2588 12.9476 12.804 13.3 12.4571C13.6619 12.1102 14.1762 11.9367 14.8429 11.9367C15.519 11.9367 16.0333 12.1102 16.3857 12.4571C16.7476 12.804 16.9429 13.2588 16.9714 13.8214C16.9905 14.0839 17 14.3043 17 14.4824C17 14.6606 16.9905 14.8715 16.9714 15.1153C16.9429 15.6779 16.7381 16.1327 16.3571 16.4796C15.9857 16.8265 15.481 17 14.8429 17ZM14.8429 15.903C15.0524 15.903 15.2143 15.8608 15.3286 15.7764C15.4524 15.692 15.5429 15.5842 15.6 15.4529C15.6571 15.3216 15.6857 15.1903 15.6857 15.0591C15.7048 14.8247 15.7143 14.6278 15.7143 14.4684C15.7143 14.2996 15.7048 14.1074 15.6857 13.8917C15.6762 13.676 15.6095 13.4791 15.4857 13.301C15.3619 13.1135 15.1476 13.0197 14.8429 13.0197C14.5476 13.0197 14.3381 13.1135 14.2143 13.301C14.0905 13.4791 14.019 13.676 14 13.8917C13.9905 14.1074 13.9857 14.2996 13.9857 14.4684C13.9857 14.6278 13.9905 14.8247 14 15.0591C14.019 15.1903 14.0524 15.3216 14.1 15.4529C14.1571 15.5842 14.2429 15.692 14.3571 15.7764C14.481 15.8608 14.6429 15.903 14.8429 15.903ZM9.14286 12.0211C8.50476 12.0211 8 11.857 7.62857 11.5288C7.25714 11.2007 7.05238 10.7553 7.01429 10.1927C7.00476 9.9489 7 9.73793 7 9.55978C7 9.37225 7.00476 9.14721 7.01429 8.88467C7.05238 8.32208 7.24762 7.86732 7.6 7.52039C7.9619 7.17346 8.47619 7 9.14286 7C9.81905 7 10.3333 7.17346 10.6857 7.52039C11.0476 7.86732 11.2429 8.32208 11.2714 8.88467C11.2905 9.14721 11.3 9.37225 11.3 9.55978C11.3 9.73793 11.2905 9.9489 11.2714 10.1927C11.2429 10.7553 11.0381 11.2007 10.6571 11.5288C10.2857 11.857 9.78095 12.0211 9.14286 12.0211ZM9.14286 10.9803C9.35238 10.9803 9.51429 10.9381 9.62857 10.8537C9.75238 10.7693 9.84286 10.6615 9.9 10.5302C9.95714 10.399 9.98571 10.263 9.98571 10.1224C10.0048 9.88795 10.0143 9.69105 10.0143 9.53165C10.0143 9.36287 10.0048 9.17065 9.98571 8.95499C9.97619 8.73933 9.90952 8.54243 9.78571 8.36428C9.6619 8.18612 9.44762 8.09705 9.14286 8.09705C8.84762 8.09705 8.6381 8.18612 8.51429 8.36428C8.39048 8.54243 8.32381 8.73933 8.31429 8.95499C8.30476 9.17065 8.3 9.36287 8.3 9.53165C8.3 9.69105 8.30476 9.88795 8.31429 10.1224C8.32381 10.263 8.35238 10.399 8.4 10.5302C8.45714 10.6615 8.54286 10.7693 8.65714 10.8537C8.78095 10.9381 8.94286 10.9803 9.14286 10.9803Z" fill="white"/>
</svg>
