<svg width="32" height="32" viewBox="0 0 32 32" fill="none" xmlns="http://www.w3.org/2000/svg">
<path fill-rule="evenodd" clip-rule="evenodd" d="M20.9483 31.2191C19.3899 31.726 17.7267 32 16 32C14.272 32 12.6078 31.7256 11.0485 31.2181C11.7688 31.3044 12.035 30.8355 12.035 30.4306C12.035 30.2543 12.0319 29.9434 12.0279 29.5274C12.0233 29.0462 12.0172 28.4243 12.013 27.7077C7.56196 28.6753 6.62296 25.5612 6.62296 25.5612C5.89596 23.712 4.84696 23.2196 4.84696 23.2196C3.39396 22.2258 4.95696 22.246 4.95696 22.246C6.56196 22.3592 7.40696 23.8961 7.40696 23.8961C8.83496 26.3429 11.152 25.6365 12.064 25.226C12.209 24.1914 12.623 23.4857 13.08 23.0855C9.52696 22.6814 5.79196 21.3083 5.79196 15.1731C5.79196 13.4248 6.41496 11.996 7.43896 10.8762C7.27396 10.471 6.72496 8.8438 7.59496 6.63925C7.59496 6.63925 8.93896 6.20891 11.995 8.28039C13.272 7.92505 14.64 7.74813 16.001 7.7409C17.36 7.74788 18.729 7.92505 20.007 8.28039C23.061 6.20891 24.402 6.63925 24.402 6.63925C25.275 8.8438 24.726 10.471 24.561 10.8762C25.587 11.996 26.206 13.4248 26.206 15.1731C26.206 21.3233 22.465 22.6774 18.901 23.0736C19.475 23.568 19.987 24.5445 19.987 26.0386C19.987 27.4699 19.978 28.716 19.9721 29.5416C19.9692 29.9508 19.967 30.2567 19.967 30.4308C19.967 30.8376 20.2267 31.3075 20.9483 31.2191Z" fill="white"/>
</svg>
